<?xml version="1.0" encoding="UTF-8"?>
<svg id="Capa_2" data-name="Capa 2" xmlns="http://www.w3.org/2000/svg" viewBox="0 0 519.26 251.66">
  <defs>
    <style>
      .cls-1 {
        fill: #52b552;
      }

      .cls-1, .cls-2 {
        stroke-width: 0px;
      }

      .cls-2 {
        fill: #c3ecc4;
      }
    </style>
  </defs>
  <g id="Capa_1-2" data-name="Capa 1">
    <g>
      <g>
        <path class="cls-1" d="M199.45,97.84v-46.74c0-11.81,7.87-20,19.49-20s19.49,8.19,19.49,20v9.88h-12.21v-9.88c0-4.94-2.93-7.95-7.16-7.95s-7.16,3.01-7.16,7.95v46.74c0,4.94,2.94,7.95,7.16,7.95s7.16-3.01,7.16-7.95v-12.05h12.21v12.05c0,11.81-7.87,20-19.49,20s-19.49-8.19-19.49-20Z"/>
        <path class="cls-1" d="M277.76,116.63l-9.04-34.82h-6.46v34.82h-12.45V32.3h19.49c11.86,0,19.49,7.95,19.49,20.12v9.28c0,7.83-3.17,13.85-8.57,17.23l10.45,37.71h-12.91ZM262.26,69.77h6.46c4.82,0,7.63-2.89,7.63-7.83v-9.76c0-4.94-2.82-7.83-7.63-7.83h-6.46v25.42Z"/>
        <path class="cls-1" d="M340.1,32.3l-16.67,49.03v35.3h-12.44v-35.3l-16.67-49.03h13.27l9.63,32.17,9.86-32.17h13.03Z"/>
        <path class="cls-1" d="M344.33,97.12v-3.01l11.98-1.33v3.13c0,6.14,3.05,9.88,7.98,9.88s7.98-3.13,7.98-8.07c0-5.3-2.11-9.16-11.39-18.19-12.33-11.93-15.85-18.43-15.85-27.71,0-12.53,7.04-20.72,18.9-20.72s18.9,8.19,18.9,20.84v2.17l-11.98,1.32v-2.41c0-6.51-2.47-9.88-6.81-9.88s-6.81,2.77-6.81,8.07,2.58,9.16,11.39,18.19c11.98,12.29,15.85,18.43,15.85,27.71,0,12.05-8.22,20.72-20.08,20.72s-20.08-8.67-20.08-20.72Z"/>
        <path class="cls-1" d="M390.7,32.3h39.69v12.05h-13.62v72.28h-12.44V44.35h-13.62v-12.05Z"/>
        <path class="cls-1" d="M459.62,97.96h-13.39l-2.7,18.67h-12.44l13.62-84.33h16.67l13.62,84.33h-12.68l-2.7-18.67ZM457.97,85.67l-5.05-35.3-5.05,35.3h10.1Z"/>
        <path class="cls-1" d="M484.62,32.3h12.45v72.28h22.19v12.05h-34.64V32.3Z"/>
        <path class="cls-1" d="M198.3,199.84v-3.01l11.98-1.33v3.13c0,6.14,3.05,9.88,7.98,9.88s7.98-3.13,7.98-8.07c0-5.3-2.11-9.16-11.39-18.19-12.33-11.93-15.85-18.43-15.85-27.71,0-12.53,7.05-20.72,18.9-20.72s18.9,8.19,18.9,20.84v2.17l-11.98,1.32v-2.41c0-6.51-2.47-9.88-6.81-9.88s-6.81,2.77-6.81,8.07,2.58,9.16,11.39,18.19c11.98,12.29,15.85,18.43,15.85,27.71,0,12.05-8.22,20.72-20.08,20.72s-20.08-8.67-20.08-20.72Z"/>
        <path class="cls-1" d="M249.02,135.03h35.34v12.05h-22.9v23.49h18.2v12.05h-18.2v24.7h22.9v12.05h-35.34v-84.33Z"/>
        <path class="cls-1" d="M322.75,219.36l-9.04-34.82h-6.46v34.82h-12.45v-84.33h19.49c11.86,0,19.49,7.95,19.49,20.12v9.28c0,7.83-3.17,13.85-8.57,17.23l10.45,37.71h-12.91ZM307.25,172.5h6.46c4.82,0,7.63-2.89,7.63-7.83v-9.76c0-4.94-2.82-7.83-7.63-7.83h-6.46v25.42Z"/>
        <path class="cls-1" d="M385.56,135.03l-13.62,84.33h-16.67l-13.62-84.33h12.68l9.39,66.26,9.39-66.26h12.44Z"/>
        <path class="cls-1" d="M395.19,135.03h12.44v84.33h-12.44v-84.33Z"/>
        <path class="cls-1" d="M420.19,200.57v-46.74c0-11.81,7.87-20,19.49-20s19.49,8.19,19.49,20v9.88h-12.21v-9.88c0-4.94-2.94-7.95-7.16-7.95s-7.16,3.01-7.16,7.95v46.74c0,4.94,2.93,7.95,7.16,7.95s7.16-3.01,7.16-7.95v-12.05h12.21v12.05c0,11.81-7.87,20-19.49,20s-19.49-8.19-19.49-20Z"/>
        <path class="cls-1" d="M470.56,135.03h35.34v12.05h-22.9v23.49h18.2v12.05h-18.2v24.7h22.9v12.05h-35.34v-84.33Z"/>
      </g>
      <g>
        <path class="cls-1" d="M121.11,23.42v131.38c0,17.17-6.69,33.31-18.82,45.45-12.14,12.14-28.28,18.82-45.45,18.82H.14v10.02h56.7c41.03,0,74.29-33.26,74.29-74.29V23.42h-10.02Z"/>
        <path class="cls-1" d="M86.75,23.42v8.59h.08v122.27c0,17.97-14.62,32.6-32.6,32.6H8.73v-.4H.14v8.99h54.09c22.75,0,41.19-18.44,41.19-41.19V23.42h-8.67Z"/>
        <path class="cls-1" d="M104.07,22.57v129.67c0,13.53-5.27,26.25-14.84,35.82-9.57,9.57-22.29,14.84-35.82,14.84H8.48s-8.34,0-8.34,0v9.44h53.28c33.14,0,60.09-26.96,60.09-60.09V22.57h-9.44Z"/>
        <rect class="cls-2" x="4.14" y="24.63" width="66.51" height="6.85"/>
        <rect class="cls-2" x="4.14" y="37.28" width="66.51" height="6.85"/>
        <rect class="cls-2" x="4.14" y="49.94" width="66.51" height="6.85"/>
        <rect class="cls-2" x="4.14" y="62.59" width="66.51" height="6.85"/>
        <path class="cls-1" d="M70.72,23.42v8.59h.07v122.66c0,8.34-6.79,15.13-15.13,15.13H8.59v-.14H0v8.73h55.66c13.1,0,23.72-10.62,23.72-23.72V23.42h-8.66Z"/>
        <path class="cls-1" d="M50.57,88.18v42.61c0,5.57-2.17,10.8-6.1,14.74-3.94,3.94-9.17,6.1-14.74,6.1H11.33v3.25h18.39c13.31,0,24.09-10.79,24.09-24.09v-42.61h-3.25Z"/>
        <path class="cls-1" d="M39.42,88.18v2.79h.03v39.65c0,5.83-4.74,10.57-10.57,10.57h-14.76v-.13h-2.79v2.92h17.54c7.38,0,13.36-5.98,13.36-13.36v-42.44h-2.81Z"/>
        <path class="cls-1" d="M45.04,87.9v42.05c0,4.39-1.71,8.51-4.81,11.62-3.1,3.1-7.23,4.81-11.62,4.81h-14.57s-2.71,0-2.71,0v3.06h17.28c10.75,0,19.49-8.74,19.49-19.49v-42.05h-3.06Z"/>
        <rect class="cls-2" x="12.63" y="88.57" width="21.57" height="2.22"/>
        <rect class="cls-2" x="12.63" y="92.67" width="21.57" height="2.22"/>
        <rect class="cls-2" x="12.63" y="96.78" width="21.57" height="2.22"/>
        <rect class="cls-2" x="12.63" y="100.88" width="21.57" height="2.22"/>
        <path class="cls-1" d="M34.22,88.18v2.79h.02v39.78c0,2.71-2.2,4.91-4.91,4.91h-15.26v-.05h-2.79v2.83h18.05c4.25,0,7.69-3.44,7.69-7.69v-42.57h-2.81Z"/>
      </g>
      <rect class="cls-1" x="165.58" width="3.7" height="251.66"/>
    </g>
  </g>
</svg>